<svg width="24" height="24" viewBox="0 0 24 24" fill="none" xmlns="http://www.w3.org/2000/svg">
<path d="M4.00048 14C3.81125 14.0007 3.62571 13.9476 3.46543 13.847C3.30516 13.7464 3.17671 13.6024 3.09503 13.4317C3.01335 13.261 2.98177 13.0706 3.00398 12.8827C3.02619 12.6948 3.10126 12.517 3.22048 12.37L13.1205 2.17004C13.1947 2.08432 13.2959 2.0264 13.4075 2.00577C13.519 1.98515 13.6342 2.00305 13.7342 2.05654C13.8342 2.11004 13.9131 2.19594 13.9578 2.30015C14.0026 2.40436 14.0106 2.52069 13.9805 2.63004L12.0605 8.65004C12.0039 8.80156 11.9849 8.96456 12.0051 9.12505C12.0253 9.28553 12.0841 9.43872 12.1766 9.57147C12.269 9.70421 12.3923 9.81256 12.5358 9.8872C12.6793 9.96185 12.8387 10.0006 13.0005 10H20.0005C20.1897 9.9994 20.3752 10.0525 20.5355 10.1531C20.6958 10.2537 20.8242 10.3977 20.9059 10.5684C20.9876 10.7391 21.0192 10.9295 20.997 11.1174C20.9748 11.3053 20.8997 11.4831 20.7805 11.63L10.8805 21.83C10.8062 21.9158 10.705 21.9737 10.5935 21.9943C10.482 22.0149 10.3668 21.997 10.2668 21.9435C10.1667 21.89 10.0879 21.8041 10.0431 21.6999C9.9984 21.5957 9.9904 21.4794 10.0205 21.37L11.9405 15.35C11.9971 15.1985 12.0161 15.0355 11.9959 14.875C11.9757 14.7145 11.9168 14.5614 11.8244 14.4286C11.732 14.2959 11.6087 14.1875 11.4652 14.1129C11.3217 14.0382 11.1622 13.9995 11.0005 14H4.00048Z" stroke="white" stroke-width="2" stroke-linecap="round" stroke-linejoin="round"/>
</svg>
