<svg width="74" height="42" viewBox="0 0 74 42" fill="none" xmlns="http://www.w3.org/2000/svg">
<path fill-rule="evenodd" clip-rule="evenodd" d="M36.608 0.00250378C38.1583 0.000945706 39.6539 0.575497 40.8045 1.61462C41.955 2.65375 42.6784 4.08331 42.8342 5.62578C42.99 7.16826 42.5671 8.71361 41.6476 9.96183C40.7281 11.21 39.3776 12.0721 37.8583 12.3806V17.5069H41.6092C41.9408 17.5069 42.2589 17.6386 42.4933 17.8731C42.7278 18.1075 42.8596 18.4256 42.8596 18.7572C42.8596 19.0888 42.7278 19.4068 42.4933 19.6413C42.2589 19.8758 41.9408 20.0075 41.6092 20.0075H37.8583V32.4106C37.8583 33.6384 37.8583 34.2535 38.0434 34.8212C38.456 36.0815 40.0814 37.3218 41.3942 37.3968C41.9943 37.4293 42.3069 37.3468 42.9371 37.1768C44.6342 36.7226 46.1819 35.8294 47.4242 34.5871C48.6665 33.3448 49.5597 31.7972 50.0138 30.1C50.1964 29.4248 50.2764 28.6571 50.3164 27.4994H49.1061C48.8932 27.4991 48.6839 27.4446 48.4981 27.3408C48.3122 27.2371 48.1559 27.0876 48.0439 26.9065C47.932 26.7255 47.8681 26.5188 47.8584 26.3062C47.8487 26.0935 47.8934 25.8819 47.9883 25.6914L50.4889 20.6902L50.579 20.5401C50.7024 20.3617 50.8702 20.2184 51.0658 20.1244C51.2613 20.0305 51.478 19.989 51.6945 20.0041C51.9109 20.0193 52.1197 20.0905 52.3003 20.2108C52.4809 20.331 52.6271 20.4963 52.7245 20.6902L55.2251 25.6914C55.3195 25.8818 55.3638 26.0932 55.3537 26.3055C55.3437 26.5178 55.2798 26.724 55.1679 26.9047C55.056 27.0854 54.8999 27.2346 54.7144 27.3382C54.5288 27.4418 54.3199 27.4964 54.1074 27.4969H52.817C52.772 28.8072 52.6745 29.8224 52.4319 30.7227C51.8623 32.8449 50.7445 34.78 49.1908 36.3337C47.637 37.8875 45.702 39.0052 43.5797 39.5749C41.9493 40.0125 40.0038 40 36.603 40C33.2021 40 31.2517 40.0125 29.6263 39.5749C27.504 39.0052 25.5689 37.8875 24.0152 36.3337C22.4614 34.78 21.3437 32.8449 20.774 30.7227C20.529 29.8099 20.4315 28.7972 20.389 27.4969H19.0986C18.8858 27.4966 18.6765 27.4421 18.4906 27.3383C18.3047 27.2346 18.1484 27.0851 18.0364 26.904C17.9245 26.723 17.8606 26.5163 17.8509 26.3037C17.8412 26.091 17.8859 25.8794 17.9809 25.6889L20.479 20.6877L20.569 20.5376C20.6924 20.3592 20.8602 20.2159 21.0558 20.1219C21.2514 20.028 21.468 19.9865 21.6845 20.0016C21.9009 20.0168 22.1097 20.088 22.2903 20.2083C22.4709 20.3285 22.6171 20.4938 22.7145 20.6877L25.2152 25.6889C25.3101 25.8794 25.3548 26.091 25.3451 26.3037C25.3354 26.5163 25.2715 26.723 25.1596 26.904C25.0476 27.0851 24.8913 27.2346 24.7054 27.3383C24.5195 27.4421 24.3102 27.4966 24.0974 27.4969H22.8871C22.9271 28.6421 23.0071 29.4098 23.1871 30.0975C23.6413 31.7947 24.5345 33.3423 25.7768 34.5846C27.0191 35.8269 28.5667 36.7201 30.2639 37.1743C30.8966 37.3418 31.2116 37.4243 31.8093 37.3943C33.1321 37.3218 34.76 36.0765 35.1601 34.8187C35.3452 34.251 35.3452 33.6359 35.3452 32.4081V20.005H31.5942C31.2626 20.005 30.9446 19.8733 30.7101 19.6388C30.4757 19.4043 30.3439 19.0863 30.3439 18.7547C30.3439 18.4231 30.4757 18.105 30.7101 17.8706C30.9446 17.6361 31.2626 17.5044 31.5942 17.5044H35.3452V12.3781C33.8259 12.0696 32.4754 11.2075 31.5559 9.95932C30.6364 8.71111 30.2135 7.16576 30.3693 5.62328C30.5251 4.08081 31.2485 2.65125 32.399 1.61212C33.5496 0.572997 35.0452 -0.00155492 36.5955 3.16062e-06L36.608 0.00250378ZM36.608 2.50313C35.6129 2.50346 34.6586 2.89909 33.9552 3.603C33.2517 4.30691 32.8567 5.26142 32.8571 6.25656C32.8574 7.2517 33.253 8.20595 33.9569 8.90939C34.6608 9.61283 35.6154 10.0078 36.6105 10.0075C37.6056 10.0072 38.5599 9.61153 39.2633 8.90762C39.9668 8.20372 40.3618 7.2492 40.3614 6.25406C40.3611 5.25892 39.9655 4.30467 39.2616 3.60123C38.5576 2.89779 37.6031 2.50279 36.608 2.50313Z" fill="black"/>
</svg>
