<svg width="24" height="24" viewBox="0 0 24 24" fill="none" xmlns="http://www.w3.org/2000/svg">
<path d="M12 24C15.1826 24 18.2348 22.7357 20.4853 20.4853C22.7357 18.2348 24 15.1826 24 12C24 8.8174 22.7357 5.76516 20.4853 3.51472C18.2348 1.26428 15.1826 0 12 0C8.8174 0 5.76516 1.26428 3.51472 3.51472C1.26428 5.76516 0 8.8174 0 12C0 15.1826 1.26428 18.2348 3.51472 20.4853C5.76516 22.7357 8.8174 24 12 24ZM21.645 16.158C20.5799 18.6179 18.6179 20.5799 16.158 21.645L14.4855 17.463C15.8051 16.8628 16.8628 15.8051 17.463 14.4855L21.645 16.158ZM7.842 21.645C5.38207 20.5799 3.4201 18.6179 2.355 16.158L6.537 14.4855C7.1372 15.8051 8.19489 16.8628 9.5145 17.463L7.842 21.645ZM21.645 7.842L17.463 9.5145C16.8628 8.19489 15.8051 7.1372 14.4855 6.537L16.158 2.355C18.6179 3.4201 20.5799 5.38207 21.645 7.842ZM9.5145 6.537C8.19489 7.1372 7.1372 8.19489 6.537 9.5145L2.355 7.842C3.4201 5.38207 5.38207 3.4201 7.842 2.355L9.5145 6.537ZM12 16.5C10.8065 16.5 9.66193 16.0259 8.81802 15.182C7.97411 14.3381 7.5 13.1935 7.5 12C7.5 10.8065 7.97411 9.66193 8.81802 8.81802C9.66193 7.97411 10.8065 7.5 12 7.5C13.1935 7.5 14.3381 7.97411 15.182 8.81802C16.0259 9.66193 16.5 10.8065 16.5 12C16.5 13.1935 16.0259 14.3381 15.182 15.182C14.3381 16.0259 13.1935 16.5 12 16.5Z" fill="white"/>
</svg>
