<svg width="37" height="42" viewBox="0 0 37 42" fill="none" xmlns="http://www.w3.org/2000/svg">
<path d="M11 36C11 37.3261 10.4732 38.5979 9.53553 39.5355C8.59785 40.4732 7.32608 41 6 41C4.67392 41 3.40215 40.4732 2.46447 39.5355C1.52678 38.5979 1 37.3261 1 36C1 34.6739 1.52678 33.4021 2.46447 32.4645C3.40215 31.5268 4.67392 31 6 31C7.32608 31 8.59785 31.5268 9.53553 32.4645C10.4732 33.4021 11 34.6739 11 36ZM11 36V6.8325L36 1V30.1675M11 16.8325L36 11M36 31C36 32.3261 35.4732 33.5979 34.5355 34.5355C33.5979 35.4732 32.3261 36 31 36C29.6739 36 28.4021 35.4732 27.4645 34.5355C26.5268 33.5979 26 32.3261 26 31C26 29.6739 26.5268 28.4021 27.4645 27.4645C28.4021 26.5268 29.6739 26 31 26C32.3261 26 33.5979 26.5268 34.5355 27.4645C35.4732 28.4021 36 29.6739 36 31Z" stroke="#C74D41" stroke-width="2" stroke-linecap="round" stroke-linejoin="round"/>
</svg>
