<svg width="24" height="24" viewBox="0 0 24 24" fill="none" xmlns="http://www.w3.org/2000/svg">
<path d="M10.6155 13.2242C10.447 13.2242 10.2802 13.1927 10.1245 13.1314C9.9688 13.0701 9.82735 12.9802 9.70821 12.8669C9.58906 12.7536 9.49455 12.6191 9.43006 12.4711C9.36558 12.3231 9.33239 12.1644 9.33239 12.0042C9.33239 11.844 9.36558 11.6853 9.43006 11.5373C9.49455 11.3893 9.58906 11.2548 9.70821 11.1415C9.82735 11.0282 9.9688 10.9384 10.1245 10.877C10.2802 10.8157 10.447 10.7842 10.6155 10.7842C10.9558 10.7842 11.2822 10.9127 11.5228 11.1415C11.7634 11.3703 11.8986 11.6806 11.8986 12.0042C11.8986 12.3278 11.7634 12.6381 11.5228 12.8669C11.2822 13.0957 10.9558 13.2242 10.6155 13.2242ZM19.0588 8.10009C17.2382 9.57313 15.8605 10.7842 13.5246 11.4772C13.4422 11.0755 13.2688 10.6957 13.0166 10.3642C12.7643 10.0326 12.4392 9.75722 12.0637 9.55713L12.049 9.55013C12.9598 7.31906 13.5887 4.33397 13.0944 2.92492C12.3603 0.829859 9.97395 -0.840193 5.38315 0.455847C0.346424 1.87889 -0.120543 6.00102 2.83902 7.00205C5.09393 7.76508 6.89028 8.29309 8.68979 9.87614C8.36547 10.1382 8.10473 10.4639 7.92553 10.8309C7.74633 11.198 7.65292 11.5976 7.65173 12.0022C7.65173 12.0182 7.65699 12.0332 7.65699 12.0492C5.1707 12.4162 2.14383 13.3902 1.10893 14.5003C-0.430803 16.1523 -0.761045 18.9524 2.71597 22.0845C6.52954 25.5196 10.5177 23.8436 9.94976 20.9065C9.51645 18.6674 9.09891 16.9244 9.6416 14.6523C9.93083 14.7553 10.2653 14.8173 10.6145 14.8203H10.6166C11.1579 14.8203 11.6885 14.677 12.1489 14.4063L12.1363 14.4133C13.7128 16.2773 16.116 18.2874 17.6453 18.5844C19.9212 19.0274 22.6357 17.8984 23.7495 13.4693C24.9716 8.6101 21.4504 6.16403 19.0598 8.10009H19.0588Z" fill="white"/>
</svg>
