<svg width="42" height="42" viewBox="0 0 42 42" fill="none" xmlns="http://www.w3.org/2000/svg">
<path d="M35.1333 16.8747L40.272 17.7147C40.4755 17.7482 40.6604 17.853 40.7938 18.0102C40.9271 18.1675 41.0002 18.3671 41 18.5733V23.3547C40.9999 23.5593 40.9276 23.7573 40.7959 23.9138C40.6643 24.0704 40.4815 24.1755 40.28 24.2107L35.1333 25.1147C34.8364 26.1493 34.4284 27.1369 33.9093 28.0773L36.952 32.3013C37.0733 32.469 37.1308 32.6744 37.1142 32.8807C37.0976 33.087 37.0079 33.2806 36.8613 33.4267L33.48 36.808C33.3356 36.953 33.1446 37.0425 32.9406 37.0605C32.7367 37.0786 32.533 37.0241 32.3653 36.9067L28.0987 33.912C27.1539 34.4366 26.154 34.8551 25.1173 35.16L24.2107 40.2827C24.1749 40.4842 24.0691 40.6666 23.9121 40.7978C23.755 40.929 23.5567 41.0006 23.352 41H18.5733C18.3678 41.0002 18.1689 40.9274 18.0121 40.7945C17.8553 40.6617 17.7508 40.4774 17.7173 40.2747L16.8667 35.1787C15.8257 34.8772 14.8213 34.4614 13.872 33.9387L9.63733 36.9067C9.46965 37.0241 9.26592 37.0786 9.06201 37.0605C8.85811 37.0425 8.66711 36.953 8.52267 36.808L5.13867 33.4267C4.99495 33.2802 4.90696 33.088 4.88992 32.8835C4.87287 32.679 4.92785 32.4749 5.04533 32.3067L8.04 28.12C7.5116 27.1662 7.09123 26.1564 6.78667 25.1093L1.71733 24.2107C1.51627 24.175 1.33419 24.0696 1.20303 23.9131C1.07186 23.7566 0.999986 23.5589 1 23.3547V18.5733C1 18.1467 1.30667 17.784 1.728 17.7147L6.79733 16.8693C7.10489 15.8204 7.52267 14.8178 8.05067 13.8613L5.09067 9.632C4.97395 9.46455 4.91988 9.26138 4.93792 9.05807C4.95596 8.85476 5.04496 8.66428 5.18933 8.52L8.57333 5.14133C8.71876 4.99572 8.91114 4.90643 9.11622 4.88934C9.32131 4.87225 9.52581 4.92847 9.69333 5.048L13.8933 8.048C14.8409 7.52889 15.8373 7.12 16.8827 6.82133L17.7147 1.728C17.7482 1.52453 17.853 1.3396 18.0102 1.20624C18.1675 1.07289 18.3671 0.999787 18.5733 1H23.3547C23.7787 1 24.1387 1.304 24.2133 1.72L25.1093 6.84C26.1493 7.14044 27.1449 7.55378 28.096 8.08L32.304 5.05333C32.4714 4.93169 32.6766 4.87372 32.8829 4.88985C33.0892 4.90598 33.2829 4.99515 33.4293 5.14133L36.8107 8.52267C36.9553 8.66744 37.0442 8.85861 37.0618 9.0625C37.0794 9.2664 37.0244 9.46996 36.9067 9.63733L33.9067 13.912C34.4222 14.8542 34.8311 15.8409 35.1333 16.872V16.8747ZM14.9093 21C14.9093 22.6146 15.5507 24.1631 16.6925 25.3049C17.8342 26.4466 19.3827 27.088 20.9973 27.088C22.612 27.088 24.1605 26.4466 25.3022 25.3049C26.4439 24.1631 27.0853 22.6146 27.0853 21C27.0853 19.3854 26.4439 17.8369 25.3022 16.6951C24.1605 15.5534 22.612 14.912 20.9973 14.912C19.3827 14.912 17.8342 15.5534 16.6925 16.6951C15.5507 17.8369 14.9093 19.3854 14.9093 21Z" stroke="#C74D41" stroke-width="2"/>
</svg>
