<svg width="17" height="26" viewBox="0 0 17 26" fill="none" xmlns="http://www.w3.org/2000/svg">
<path d="M13.5 6.18919C14.163 6.18919 14.7989 5.91583 15.2678 5.42925C15.7366 4.94267 16 4.28272 16 3.59459C16 2.90647 15.7366 2.24652 15.2678 1.75994C14.7989 1.27336 14.163 1 13.5 1C12.837 1 12.2011 1.27336 11.7322 1.75994C11.2634 2.24652 11 2.90647 11 3.59459C11 4.28272 11.2634 4.94267 11.7322 5.42925C12.2011 5.91583 12.837 6.18919 13.5 6.18919ZM13.5 6.18919V19.1622C13.5 26.9459 1 26.9459 1 19.1622V13.973L3.5 16.5676" stroke="white" stroke-width="2" stroke-linecap="round" stroke-linejoin="round"/>
</svg>
