<svg width="28" height="44" viewBox="0 0 28 44" fill="none" xmlns="http://www.w3.org/2000/svg">
<path d="M19.1875 1.29297C19.5074 0.973086 20.0026 0.907832 20.3945 1.13379C20.7862 1.35981 20.9779 1.82081 20.8613 2.25781L16.835 17.3535L25.7129 23.2734C25.962 23.4396 26.1238 23.7088 26.1533 24.0068C26.1828 24.3049 26.077 24.6007 25.8652 24.8125L7.9707 42.707C7.65082 43.0269 7.15558 43.0922 6.76367 42.8662C6.3718 42.6402 6.18032 42.1793 6.29688 41.7422L10.3223 26.6455L1.44531 20.7266C1.19609 20.5604 1.0344 20.2913 1.00488 19.9932C0.975398 19.6951 1.08115 19.3993 1.29297 19.1875L19.1875 1.29297Z" stroke="#C74D41" stroke-width="2" stroke-linejoin="round"/>
</svg>
