<svg width="26" height="26" viewBox="0 0 26 26" fill="none" xmlns="http://www.w3.org/2000/svg">
<path d="M24.9997 1L1.71999 24.2783M24.9997 1V3.39982C25.0201 7.02102 24.1296 10.5892 22.4102 13.7763C20.6907 16.9634 18.1975 19.667 15.1598 21.6385M24.9997 1H22.5997C10.7199 1 1 10.7193 1 22.5984C1 23.2349 1.25285 23.8453 1.70293 24.2953C2.15301 24.7454 2.76346 24.9982 3.39997 24.9982C6.56895 25.0387 9.70378 24.3403 12.5558 22.9584" stroke="white" stroke-width="2" stroke-linecap="round" stroke-linejoin="round"/>
<path d="M7.06836 18.8793C10.3083 18.8793 12.9483 21.6391 13.0683 24.8789C13.8867 24.1172 14.5372 23.1932 14.9783 22.166C15.4194 21.1387 15.6414 20.0307 15.6301 18.9128C15.6188 17.7949 15.3745 16.6917 14.9127 15.6735C14.451 14.6554 13.7819 13.7447 12.9483 12.9998" stroke="white" stroke-width="2" stroke-linecap="round" stroke-linejoin="round"/>
</svg>
