<svg width="15" height="16" viewBox="0 0 15 16" fill="none" xmlns="http://www.w3.org/2000/svg">
<path d="M3.16047 15.4C3.16047 15.2267 3.12714 15.14 3.06047 15.14L2.60047 15.36C2.60047 15.2667 2.54714 15.2 2.44047 15.16L2.28047 15.14C2.1738 15.14 2.04047 15.1867 1.88047 15.28C1.8538 15.2134 1.82047 15.1467 1.78047 15.08C1.74047 15.0134 1.70714 14.9534 1.68047 14.9C1.50714 14.5667 1.3338 14.2 1.16047 13.8C1.00047 13.3867 0.847135 12.9934 0.700469 12.62C0.567136 12.2467 0.460469 11.9534 0.380469 11.74C0.327135 11.5667 0.267135 11.3067 0.200469 10.96C0.133802 10.6134 0.0671355 10.1734 0.000468805 9.64002C0.147135 9.73335 0.260469 9.78002 0.340469 9.78002C0.433802 9.78002 0.520469 9.64002 0.600469 9.36002C0.640469 9.41335 0.713802 9.44002 0.820469 9.44002C0.900469 9.44002 0.960469 9.41335 1.00047 9.36002L1.32047 8.88002L1.68047 9.00002H1.70047C1.72714 9.00002 1.7538 8.98669 1.78047 8.96002C1.80714 8.93335 1.84714 8.90669 1.90047 8.88002C2.00714 8.81335 2.08714 8.78002 2.14047 8.78002L2.20047 8.80002C2.5338 8.96002 2.74714 9.25335 2.84047 9.68002C3.08047 10.6934 3.32047 11.2 3.56047 11.2C3.80047 11.2 4.08047 10.9467 4.40047 10.44C4.56047 10.1867 4.72047 9.89335 4.88047 9.56002C5.0538 9.22669 5.22714 8.85335 5.40047 8.44002C5.42714 8.60002 5.4538 8.68002 5.48047 8.68002C5.54714 8.68002 5.66047 8.51335 5.82047 8.18002C5.9938 7.84669 6.26714 7.38669 6.64047 6.80002C6.8538 6.44002 7.12047 6.03335 7.44047 5.58002C7.7738 5.12669 8.12714 4.66002 8.50047 4.18002C8.8738 3.70002 9.2338 3.24669 9.58047 2.82002C9.94047 2.39335 10.2605 2.02669 10.5405 1.72002C10.8205 1.41335 11.0271 1.21335 11.1605 1.12002C11.6671 0.773352 12.0671 0.440019 12.3605 0.120019C12.3471 0.213352 12.3271 0.300019 12.3005 0.380019C12.2871 0.446686 12.2805 0.493352 12.2805 0.520019C12.2805 0.573352 12.3071 0.600019 12.3605 0.600019L12.9205 0.320019V0.400019C12.9205 0.506686 12.9471 0.560019 13.0005 0.560019C13.0405 0.560019 13.1205 0.500019 13.2405 0.380019C13.3605 0.260019 13.4271 0.173352 13.4405 0.120019L13.4005 0.400019L14.0805 1.93119e-05L13.9205 0.360019C14.1338 0.213352 14.2871 0.140019 14.3805 0.140019C14.4338 0.140019 14.4738 0.173352 14.5005 0.240019C14.5271 0.293352 14.5405 0.346685 14.5405 0.400019C14.5405 0.480019 14.5071 0.573352 14.4405 0.680019C14.3738 0.786686 14.2871 0.913352 14.1805 1.06002C14.1005 1.16669 13.9671 1.32669 13.7805 1.54002C13.6071 1.74002 13.3405 2.04002 12.9805 2.44002C12.6205 2.82669 12.1405 3.36669 11.5405 4.06002C11.3805 4.23335 11.1338 4.54002 10.8005 4.98002C10.4671 5.40669 10.0871 5.90669 9.66047 6.48002C9.24714 7.04002 8.8338 7.60669 8.42047 8.18002C8.00714 8.75335 7.64047 9.27335 7.32047 9.74002C7.00047 10.1934 6.7738 10.5334 6.64047 10.76L5.40047 12.86C5.1338 13.3134 4.9138 13.6867 4.74047 13.98C4.56714 14.26 4.4338 14.4534 4.34047 14.56C4.14047 14.8 3.92047 15.0134 3.68047 15.2L3.50047 15.1L3.34047 15.2L3.16047 15.4Z" fill="white"/>
</svg>
