<svg width="160" height="34" viewBox="0 0 160 34" fill="none" xmlns="http://www.w3.org/2000/svg">
<g clip-path="url(#clip0_91_2124)">
<path d="M45.9167 9.2425C45.9167 9.52848 46.0303 9.80275 46.2326 10.005C46.4348 10.2072 46.709 10.3208 46.995 10.3208H55.4119C56.028 10.3208 56.6442 9.7724 56.8599 8.67563L57.6917 4.78145C58.2586 2.15042 56.5641 0 53.9331 0H13.8822C12.5269 0.061402 11.228 0.560586 10.1804 1.42268C9.13278 2.28477 8.39291 3.46328 8.07178 4.78145L5.81045 14.9544C5.12035 17.9982 7.19683 20.9065 11.473 20.9065H41.8562C42.0696 20.8931 42.2834 20.9236 42.4846 20.996C42.6857 21.0684 42.8699 21.1813 43.0258 21.3277C43.1816 21.474 43.3058 21.6508 43.3907 21.847C43.4756 22.0432 43.5194 22.2547 43.5194 22.4685C43.5194 22.6823 43.4756 22.8938 43.3907 23.0901C43.3058 23.2863 43.1816 23.463 43.0258 23.6094C42.8699 23.7557 42.6857 23.8686 42.4846 23.941C42.2834 24.0135 42.0696 24.0439 41.8562 24.0305H2.01486L0 33.0697H44.9802C49.2317 33.0697 52.3742 29.5144 52.8917 27.0867L55.0237 16.6858C55.7446 12.8779 51.9921 11.245 49.3611 11.245H18.9471C18.6218 11.2225 18.3171 11.0773 18.0946 10.8389C17.8721 10.6005 17.7484 10.2865 17.7484 9.96033C17.7484 9.6342 17.8721 9.32022 18.0946 9.08177C18.3171 8.84332 18.6218 8.69817 18.9471 8.67563H45.3252C45.4021 8.67046 45.4793 8.6814 45.5518 8.70773C45.6242 8.73406 45.6904 8.77521 45.746 8.82855C45.8017 8.8819 45.8456 8.94626 45.875 9.01753C45.9044 9.08881 45.9186 9.16543 45.9167 9.2425Z" fill="black"/>
<path d="M156.143 0H115.92C114.564 0.061087 113.264 0.560039 112.215 1.42207C111.167 2.28411 110.426 3.46279 110.103 4.78145L106.905 19.6804C106.905 19.9663 107.019 20.2406 107.221 20.4428C107.423 20.645 107.698 20.7587 107.984 20.7587H113.042C113.659 20.7587 114.275 20.2164 114.49 19.1197L116.647 10.9123C116.797 10.3006 117.141 9.75392 117.627 9.35404C118.114 8.95417 118.717 8.72263 119.346 8.69411H146.882C147.28 8.71908 147.652 8.89451 147.925 9.18469C148.198 9.47488 148.349 9.858 148.349 10.2561C148.349 10.6542 148.198 11.0373 147.925 11.3275C147.652 11.6177 147.28 11.7931 146.882 11.8181H119.722C119.092 11.847 118.488 12.0794 118.002 12.4805C117.515 12.8815 117.172 13.4296 117.023 14.0424L115.957 18.7068C115.881 18.9711 115.868 19.2498 115.921 19.5199C115.973 19.7899 116.089 20.0437 116.258 20.2603C116.428 20.4768 116.647 20.65 116.896 20.7656C117.146 20.8812 117.42 20.9358 117.694 20.925H143.956C144.353 20.95 144.726 21.1254 144.998 21.4156C145.271 21.7058 145.422 22.0889 145.422 22.487C145.422 22.8851 145.271 23.2682 144.998 23.5584C144.726 23.8486 144.353 24.024 143.956 24.049H64.1804C63.9054 24.0594 63.6319 24.0046 63.3821 23.8891C63.1323 23.7735 62.9135 23.6005 62.7434 23.3841C62.5733 23.1678 62.4569 22.9143 62.4036 22.6443C62.3502 22.3743 62.3616 22.0955 62.4367 21.8308L64.7843 10.9308C64.9341 10.3191 65.278 9.7724 65.7645 9.37253C66.251 8.97265 66.854 8.74112 67.4831 8.7126H99.2711C99.3478 8.70737 99.4246 8.7183 99.4968 8.74469C99.5689 8.77108 99.6348 8.81233 99.6899 8.86577C99.7451 8.91922 99.7885 8.98366 99.8172 9.05493C99.8458 9.1262 99.8592 9.2027 99.8565 9.27947L99.6285 11.3128C99.6285 11.5988 99.7421 11.8731 99.9443 12.0753C100.147 12.2775 100.421 12.3911 100.707 12.3911H105.766C106.382 12.3911 106.998 11.8489 107.214 10.7521L108.52 4.79994C109.062 2.15042 107.392 0 104.749 0H64.698C63.3427 0.061402 62.0438 0.560586 60.9962 1.42268C59.9485 2.28477 59.2087 3.46328 58.8875 4.78145L53.8596 28.2821C53.2928 30.9131 54.9811 33.0697 57.6121 33.0697H149.07C150.426 33.0072 151.726 32.507 152.775 31.644C153.823 30.7809 154.564 29.6014 154.886 28.2821L156.414 21.0113C156.907 18.7253 155.693 16.8029 153.648 16.3346C154.809 16.0828 155.877 15.5107 156.73 14.6829C157.582 13.8552 158.186 12.8051 158.472 11.6517L159.896 4.78145C160.463 2.15042 158.774 0 156.143 0Z" fill="black"/>
</g>
<defs>
<clipPath id="clip0_91_2124">
<rect width="160" height="33.0697" fill="white"/>
</clipPath>
</defs>
</svg>
