<svg width="160" height="45" viewBox="0 0 160 45" fill="none" xmlns="http://www.w3.org/2000/svg">
<g clip-path="url(#clip0_91_2132)">
<path d="M27.1039 0V11.7612C29.5526 9.10841 32.261 7.42029 35.4518 5.89913V16.6586H32.8361V10.2585C29.9978 12.1878 27.141 15.2672 27.1225 16.6771L24.4883 16.6586V0H27.1039Z" fill="black"/>
<path d="M44.2249 16.7511L36.5078 16.6027C39.5872 11.223 41.9246 8.64443 47.6568 5.89893V16.6583H45.0226V10.2954C43.5571 11.3714 42.2029 12.7627 41.1826 14.0798L42.9449 14.1169L44.2249 16.7511Z" fill="black"/>
<path d="M51.31 0H48.6758V16.6586H51.31V0Z" fill="black"/>
<path d="M147.552 5.76911H155.381L154.027 8.40331H148.628C149.834 10.8335 151.485 12.7071 153.526 14.0613H160.019V29.9964C148.758 28.5679 139.613 29.4213 129.744 35.3575C115.33 28.03 100.786 24.6537 87.8191 36.7303L86.0012 35.3761C84.0904 39.0491 81.8458 41.7204 78.8962 44.5958C76.3733 41.7204 74.0916 38.808 72.1994 35.4503L70.0475 37.2682C57.971 24.0601 43.4829 27.8074 29.273 35.0793C19.7194 28.9761 11.0006 28.2526 0 30.0891V14.321H6.78956C10.7965 12.6329 14.0429 10.6851 16.5658 8.45897L7.42029 8.16215C7.55014 1.5952 14.5994 -2.33756 20.0719 1.5952L17.92 2.9494C14.6365 1.44679 11.7055 2.9494 10.5739 5.63926L22.7988 6.02882C18.0499 11.4085 14.1171 14.1355 7.32754 16.9552H2.6342V27.0097C12.6701 25.6184 21.6116 27.288 29.4029 32.0555C46.5809 23.4294 60.3826 23.6891 70.2516 33.6323L72.9785 31.332C74.7223 34.7082 76.5774 37.8062 79.0075 40.7372C81.6974 37.8248 83.3298 34.9123 84.9623 31.3506L87.6151 33.3169C98.3745 23.9303 112.529 23.8375 129.614 32.3523C137.646 27.7146 146.903 25.9708 157.366 27.0282V16.6769H152.747C146.792 12.9668 144.25 6.62244 143.768 0.0925887H146.384C146.606 2.20737 146.996 4.08099 147.552 5.76911Z" fill="black"/>
<path d="M55.4467 0H52.8125V16.6586H55.4467V0Z" fill="black"/>
<path d="M62.8483 5.50977C66.1504 5.50977 68.8217 8.18107 68.8217 11.4831C68.8217 14.7851 66.1504 17.4564 62.8483 17.4564C59.5463 17.4564 56.875 14.7851 56.875 11.4831C56.875 8.19962 59.5463 5.50977 62.8483 5.50977ZM62.8483 8.14397C60.9933 8.14397 59.5092 9.64658 59.5092 11.4831C59.5092 13.3382 61.0118 14.8222 62.8483 14.8222C64.7034 14.8222 66.1875 13.3196 66.1875 11.4831C66.1875 9.64658 64.6849 8.14397 62.8483 8.14397Z" fill="black"/>
<path d="M96.0547 14.7291C100.062 13.041 104.607 10.6851 107.148 8.45897L97.9654 8.16215C98.0953 1.5952 105.145 -2.33756 110.617 1.5952L108.465 2.9494C105.182 1.44679 102.251 2.93085 101.119 5.6207L113.715 6.01027C108.966 11.39 104.384 14.2468 97.5758 17.048L96.0547 14.7291Z" fill="black"/>
<path d="M72.4594 5.80615V12.707C74.8524 10.8148 76.9301 8.90412 78.3771 5.80615H81.0113V12.707C83.4043 10.8148 85.2965 8.99688 86.929 5.89891H89.3591C87.8194 11.0189 83.3487 14.5064 78.3771 17.5859V10.5366C76.2252 13.3006 73.1458 15.5453 69.8438 17.6044V5.80615H72.4594Z" fill="black"/>
<path d="M118.537 16.7511L126.254 16.6027C123.175 11.223 120.838 8.64443 115.105 5.89893V22.0937H117.74V10.2954C119.205 11.3714 120.559 12.7627 121.58 14.0798L119.817 14.1169L118.537 16.7511Z" fill="black"/>
<path d="M144.991 10.0728C143.34 8.49603 141.355 7.21603 138.609 5.89893V16.6583H141.244V10.2954C142.023 10.8705 142.783 11.5383 143.47 12.2433L144.991 10.0728Z" fill="black"/>
<path d="M131.598 5.50977C134.9 5.50977 137.572 8.18107 137.572 11.4831C137.572 14.7851 134.9 17.4564 131.598 17.4564C128.296 17.4564 125.625 14.7851 125.625 11.4831C125.625 8.19962 128.296 5.50977 131.598 5.50977ZM131.598 8.14397C129.743 8.14397 128.259 9.64658 128.259 11.4831C128.259 13.3382 129.762 14.8222 131.598 14.8222C133.453 14.8222 134.937 13.3196 134.937 11.4831C134.937 9.64658 133.435 8.14397 131.598 8.14397Z" fill="black"/>
</g>
<defs>
<clipPath id="clip0_91_2132">
<rect width="160" height="44.5774" fill="white"/>
</clipPath>
</defs>
</svg>
