<svg width="32" height="32" viewBox="0 0 32 32" fill="none" xmlns="http://www.w3.org/2000/svg">
<path d="M26.6654 13.3332C26.6654 19.9905 19.28 26.9238 16.8 29.0652C16.569 29.2389 16.2878 29.3328 15.9987 29.3328C15.7096 29.3328 15.4284 29.2389 15.1974 29.0652C12.7174 26.9238 5.33203 19.9905 5.33203 13.3332C5.33203 10.5042 6.45584 7.79109 8.45623 5.7907C10.4566 3.79031 13.1697 2.6665 15.9987 2.6665C18.8277 2.6665 21.5408 3.79031 23.5412 5.7907C25.5416 7.79109 26.6654 10.5042 26.6654 13.3332Z" stroke="#C74D41" stroke-width="2.66667" stroke-linecap="round" stroke-linejoin="round"/>
<path d="M16 17.3335C18.2091 17.3335 20 15.5426 20 13.3335C20 11.1244 18.2091 9.3335 16 9.3335C13.7909 9.3335 12 11.1244 12 13.3335C12 15.5426 13.7909 17.3335 16 17.3335Z" stroke="#C74D41" stroke-width="2.66667" stroke-linecap="round" stroke-linejoin="round"/>
</svg>
