<svg width="32" height="32" viewBox="0 0 32 32" fill="none" xmlns="http://www.w3.org/2000/svg">
<path d="M25.3346 22.6668H28.0013C28.8013 22.6668 29.3346 22.1335 29.3346 21.3335V17.3335C29.3346 16.1335 28.4013 15.0668 27.3346 14.8002C24.9346 14.1335 21.3346 13.3335 21.3346 13.3335C21.3346 13.3335 19.6013 11.4668 18.4013 10.2668C17.7346 9.7335 16.9346 9.3335 16.0013 9.3335H6.66797C5.86797 9.3335 5.2013 9.86683 4.8013 10.5335L2.93464 14.4002C2.75808 14.9151 2.66797 15.4558 2.66797 16.0002V21.3335C2.66797 22.1335 3.2013 22.6668 4.0013 22.6668H6.66797" stroke="#C74D41" stroke-width="2.66667" stroke-linecap="round" stroke-linejoin="round"/>
<path d="M9.33464 25.3333C10.8074 25.3333 12.0013 24.1394 12.0013 22.6667C12.0013 21.1939 10.8074 20 9.33464 20C7.86188 20 6.66797 21.1939 6.66797 22.6667C6.66797 24.1394 7.86188 25.3333 9.33464 25.3333Z" stroke="#C74D41" stroke-width="2.66667" stroke-linecap="round" stroke-linejoin="round"/>
<path d="M12 22.6665H20" stroke="#C74D41" stroke-width="2.66667" stroke-linecap="round" stroke-linejoin="round"/>
<path d="M22.6667 25.3333C24.1394 25.3333 25.3333 24.1394 25.3333 22.6667C25.3333 21.1939 24.1394 20 22.6667 20C21.1939 20 20 21.1939 20 22.6667C20 24.1394 21.1939 25.3333 22.6667 25.3333Z" stroke="#C74D41" stroke-width="2.66667" stroke-linecap="round" stroke-linejoin="round"/>
</svg>
